<?xml version="1.0" standalone="no"?>
<!DOCTYPE svg PUBLIC "-//W3C//DTD SVG 20010904//EN"
 "http://www.w3.org/TR/2001/REC-SVG-20010904/DTD/svg10.dtd">
<svg version="1.0" xmlns="http://www.w3.org/2000/svg"
 width="2121.000000pt" height="2121.000000pt" viewBox="0 0 2121.000000 2121.000000"
 preserveAspectRatio="xMidYMid meet">
<metadata>
Created by potrace 1.14, written by Peter Selinger 2001-2017
</metadata>
<g transform="translate(0.000000,2121.000000) scale(0.100000,-0.100000)"
fill="#000000" stroke="none">
<path d="M11009 21168 c-2 -7 -10 -48 -47 -243 -38 -193 -52 -269 -67 -365 -3
-19 -8 -42 -10 -50 -2 -8 -7 -33 -10 -55 -3 -23 -7 -50 -9 -60 -2 -11 -7 -42
-10 -69 -4 -27 -9 -52 -10 -55 -2 -3 -7 -28 -10 -56 -4 -27 -8 -61 -11 -75 -3
-14 -7 -38 -9 -55 -3 -16 -12 -75 -21 -130 -9 -55 -18 -116 -21 -135 -3 -19
-8 -39 -11 -44 -3 -5 -7 -146 -9 -314 -2 -167 -5 -306 -7 -309 -3 -2 -27 10
-54 26 -142 87 -335 158 -506 186 -85 14 -304 14 -326 1 -8 -6 -1 -21 26 -54
140 -174 411 -329 673 -386 98 -21 118 -24 158 -25 l32 -1 -4 -302 c-2 -167
-4 -305 -5 -306 -1 -2 -22 14 -48 36 -27 21 -93 70 -148 108 l-100 69 -80 -2
c-98 -3 -117 8 -140 79 -32 98 -37 103 -117 126 -113 34 -250 56 -403 67 -72
6 -126 11 -205 21 -60 8 -195 42 -239 60 -49 21 -49 11 2 -15 75 -38 174 -120
331 -271 198 -190 325 -288 380 -292 12 -1 55 9 94 22 90 31 115 23 159 -45
18 -27 43 -55 55 -61 49 -25 372 -96 446 -97 12 0 15 -15 14 -82 0 -22 -2
-149 -3 -283 l-2 -242 -34 26 c-57 44 -253 140 -340 167 -194 62 -337 80 -498
62 l-66 -7 28 -36 c15 -21 37 -48 48 -61 28 -32 161 -141 173 -141 6 0 12 -4
14 -9 2 -5 41 -29 88 -54 172 -93 328 -142 515 -163 33 -3 62 -8 65 -11 10
-10 5 -531 -5 -525 -5 3 -44 31 -85 61 -63 47 -202 142 -260 176 -8 5 -53 9
-100 10 -100 0 -130 14 -156 72 -50 113 -56 122 -89 137 -34 16 -140 50 -185
59 -14 3 -59 12 -100 21 -41 9 -91 19 -110 22 -19 3 -57 9 -85 14 -27 5 -75
12 -105 15 -100 11 -296 54 -399 88 -55 18 -101 32 -101 31 0 -1 26 -17 58
-34 111 -63 221 -149 402 -314 103 -94 240 -203 329 -261 86 -56 131 -65 211
-41 93 28 149 15 183 -43 27 -46 53 -70 93 -87 51 -21 247 -77 349 -99 44 -10
97 -22 118 -27 l38 -9 -3 -280 c-2 -153 -5 -279 -8 -279 -3 1 -30 23 -60 50
-73 66 -101 78 -166 74 -61 -5 -89 13 -99 63 -18 93 -27 106 -90 131 -63 25
-234 66 -320 77 -160 19 -297 51 -388 89 -48 20 -47 12 4 -20 53 -33 146 -127
238 -239 134 -163 269 -285 315 -285 14 0 53 7 86 17 74 20 97 11 123 -51 10
-24 28 -48 40 -55 35 -18 187 -68 250 -82 32 -7 61 -17 64 -22 5 -8 6 -69 4
-251 l-1 -68 -71 68 c-40 38 -100 96 -134 129 -111 107 -113 108 -75 40 19
-33 51 -88 72 -123 21 -34 38 -66 38 -71 0 -5 7 -14 15 -21 8 -7 15 -17 15
-23 0 -5 -15 2 -32 17 -185 150 -421 245 -648 262 l-85 6 25 -28 c162 -187
397 -315 623 -339 37 -4 66 -9 65 -11 -4 -3 -37 -10 -98 -20 -19 -3 -37 -7
-40 -9 -3 -2 -26 -6 -50 -10 -25 -3 -70 -11 -100 -17 l-55 -12 80 -13 c44 -7
98 -15 120 -18 22 -3 65 -10 95 -15 60 -10 99 -16 175 -26 28 -3 52 -8 55 -11
10 -10 5 -531 -5 -525 -5 3 -80 65 -165 137 -194 164 -389 326 -415 345 -11 7
5 -12 35 -44 30 -32 64 -68 75 -80 11 -12 81 -86 155 -165 74 -79 144 -154
155 -166 11 -12 38 -41 60 -64 l40 -42 -50 19 c-131 52 -536 214 -769 308
-257 103 -347 133 -179 59 49 -21 121 -54 161 -72 41 -18 75 -33 77 -33 2 0
42 -18 89 -39 46 -22 158 -72 248 -111 90 -40 183 -81 208 -92 25 -11 68 -30
95 -43 107 -47 106 -45 30 -40 -38 3 -90 7 -115 10 -25 2 -74 7 -110 9 -36 3
-96 8 -135 11 -38 3 -88 8 -110 10 -22 2 -74 7 -115 10 -41 3 -86 8 -98 11
-13 3 -21 1 -18 -4 3 -6 26 -13 52 -17 25 -3 56 -8 67 -11 12 -2 33 -6 47 -9
14 -3 34 -7 45 -9 18 -3 67 -11 135 -22 14 -3 48 -9 75 -14 70 -13 100 -18
403 -66 l33 -5 -1 -363 c-1 -199 -6 -369 -11 -377 -6 -10 -9 -11 -9 -1 0 29
-151 235 -307 420 l-23 27 -1 -25 c-1 -14 -3 -52 -4 -85 -2 -33 -5 -115 -7
-181 -1 -67 -6 -120 -9 -118 -3 2 -39 47 -80 101 -41 54 -76 100 -79 103 -3 3
-54 70 -115 150 -60 80 -126 167 -147 193 l-38 48 1 -123 c1 -68 0 -140 0
-161 l-1 -39 -52 69 c-132 172 -361 453 -366 448 -3 -3 -5 -78 -4 -167 l2
-163 -48 50 c-26 28 -79 85 -117 129 -39 43 -83 93 -100 111 -16 18 -43 48
-59 66 -72 83 -116 127 -116 116 1 -7 20 -69 44 -139 24 -71 41 -128 38 -128
-7 0 -134 75 -187 111 -22 15 -56 36 -75 46 -19 11 -129 78 -245 148 -115 70
-222 135 -237 144 -14 9 -44 26 -65 39 -72 44 -8 -6 152 -119 395 -278 613
-434 611 -436 -1 -1 -69 -4 -151 -7 -83 -3 -159 -5 -170 -6 -20 -1 40 -21 459
-157 l208 -68 -201 -60 c-221 -65 -221 -65 -96 -96 39 -9 142 -36 230 -59 88
-23 167 -44 175 -46 68 -16 190 -51 194 -55 5 -4 -98 -38 -354 -118 -24 -8
-23 -9 15 -20 31 -9 426 -106 470 -115 115 -25 295 -71 295 -76 0 -4 -21 -15
-47 -25 -27 -10 -61 -23 -78 -31 -16 -7 -79 -33 -140 -57 -60 -25 -134 -56
-164 -69 l-55 -24 97 -37 c201 -77 471 -147 682 -176 139 -20 171 -24 205 -26
19 -1 43 -3 52 -4 17 -1 17 -26 14 -388 -2 -214 -4 -394 -5 -400 -1 -7 -36 16
-78 50 -43 34 -99 77 -124 95 l-46 34 2 105 c2 115 -3 116 -30 6 -9 -40 -20
-73 -24 -73 -3 0 -31 43 -61 95 -30 51 -56 93 -57 92 -2 -3 -9 -58 -18 -156
-3 -30 -8 -57 -10 -60 -3 -3 -17 0 -32 5 -36 12 -59 55 -77 138 -12 57 -27 87
-106 204 -135 200 -146 206 -40 22 68 -118 67 -110 14 -94 -42 12 -110 26
-198 39 -53 7 -137 13 -296 20 -132 5 -248 14 -282 20 -9 2 -38 7 -65 11 -26
4 -65 13 -85 20 -21 7 -38 11 -38 9 0 -2 -21 5 -46 15 -68 29 -66 24 6 -21
119 -76 231 -179 369 -339 94 -109 255 -264 318 -306 30 -20 53 -38 50 -40 -5
-6 -65 -12 -132 -15 -105 -3 3 -14 130 -13 101 2 116 4 177 33 89 42 122 47
153 27 14 -9 25 -20 25 -25 0 -4 -45 -44 -100 -87 -55 -43 -95 -80 -88 -82 7
-1 65 9 128 22 63 13 118 20 123 17 4 -4 -9 -44 -29 -90 -19 -45 -34 -85 -31
-87 2 -2 28 34 58 81 52 82 55 85 84 80 17 -4 41 -9 54 -11 14 -3 28 -7 32
-10 4 -2 27 -7 51 -10 24 -4 54 -11 67 -15 13 -5 26 -8 28 -5 3 2 18 0 34 -4
26 -8 141 -23 177 -23 10 0 12 -42 10 -191 l-3 -191 -80 -43 c-44 -24 -138
-74 -210 -112 -71 -37 -159 -84 -194 -103 l-63 -34 -117 77 c-117 78 -238 147
-268 152 -21 4 -23 -10 -23 -172 -1 -112 2 -177 11 -238 4 -22 -5 -33 -38 -50
-37 -18 -178 -93 -353 -186 -47 -25 -108 -58 -136 -73 l-52 -26 -168 92 c-93
51 -171 95 -173 97 -3 2 5 23 16 47 53 105 75 162 120 297 26 80 48 146 48
147 1 2 50 4 108 6 59 2 110 7 114 10 3 4 -7 7 -23 8 -32 0 -100 8 -156 18
l-37 6 72 76 c39 41 83 87 96 102 l24 27 -79 -27 c-43 -14 -103 -34 -133 -45
-29 -10 -56 -16 -59 -13 -3 3 -5 19 -5 35 0 37 30 71 99 110 29 16 64 44 77
62 27 36 148 238 143 238 -2 0 -32 -39 -66 -86 -34 -47 -63 -84 -65 -82 -1 2
-5 26 -8 53 -11 102 -45 220 -107 375 -86 215 -120 320 -136 415 -3 22 -8 47
-9 55 -2 8 -4 44 -6 80 -1 36 -3 54 -6 40 -3 -21 -30 -147 -39 -185 -12 -51
-82 -193 -179 -365 -84 -149 -175 -367 -175 -419 0 -22 -15 -4 -100 122 -69
102 -104 144 -62 75 35 -59 131 -227 151 -266 10 -20 48 -60 84 -89 70 -56 92
-95 73 -131 -11 -21 -12 -21 -110 23 -55 25 -101 43 -103 41 -2 -2 21 -44 51
-92 30 -49 54 -90 52 -91 -4 -4 -154 35 -169 43 -9 5 -9 4 0 -6 6 -6 48 -31
94 -55 91 -46 89 -42 104 -155 3 -25 10 -61 15 -80 5 -19 11 -46 14 -60 7 -34
13 -59 25 -97 l10 -33 -32 17 c-68 34 -742 406 -750 412 -4 4 12 46 37 92 59
112 128 276 176 416 22 62 39 117 40 121 0 4 7 30 14 57 23 78 55 245 62 319
l6 68 -43 -31 c-24 -18 -96 -68 -159 -111 -63 -43 -141 -97 -172 -119 -32 -23
-58 -38 -58 -33 0 4 16 61 36 127 19 66 51 172 69 235 19 63 52 176 74 250 22
74 39 135 37 137 -1 2 -11 -5 -22 -15 -10 -9 -53 -44 -94 -77 -41 -33 -77 -62
-80 -65 -3 -3 -29 -25 -58 -49 l-54 -44 6 29 c3 16 9 45 15 64 16 62 152 554
158 575 4 14 -9 7 -48 -25 -63 -53 -190 -160 -238 -203 -26 -23 -32 -25 -28
-11 3 11 15 66 26 124 27 135 25 123 56 275 14 72 28 141 31 155 3 14 9 40 14
58 14 52 -9 26 -97 -109 -42 -65 -78 -118 -79 -116 -3 3 -23 122 -29 177 -4
34 -7 53 -21 155 -4 28 -8 57 -9 65 -12 90 -17 129 -21 151 -2 15 -6 47 -9 70
-6 52 -15 114 -20 149 -2 14 -7 50 -10 80 -3 30 -8 57 -11 59 -5 5 0 -114 10
-269 3 -36 8 -121 11 -190 9 -154 11 -204 20 -350 l7 -115 -112 115 c-62 63
-110 106 -106 95 13 -37 187 -490 196 -510 17 -36 30 -75 25 -75 -4 0 -155 81
-257 139 l-58 33 26 -59 c34 -76 54 -121 126 -278 33 -71 73 -159 89 -194 16
-35 28 -66 25 -68 -2 -2 -65 30 -140 71 -75 42 -138 76 -140 76 -2 0 21 -51
52 -112 30 -62 86 -178 124 -258 39 -80 88 -180 109 -222 30 -60 35 -76 21
-71 -9 4 -96 46 -192 94 -96 48 -176 86 -177 84 -10 -8 117 -283 184 -400 55
-96 154 -247 168 -257 36 -26 -25 3 -152 73 -82 45 -173 95 -203 112 -30 16
-75 41 -100 55 -25 13 -67 37 -95 52 -27 15 -70 38 -95 52 -25 14 -80 44 -122
67 -43 23 -78 45 -78 49 0 4 21 59 46 122 95 240 257 680 250 680 -2 0 -32
-59 -67 -132 -212 -434 -279 -562 -274 -523 2 22 7 78 11 125 4 47 8 99 10
115 1 17 5 64 8 105 4 41 9 102 12 135 3 33 7 80 9 105 2 25 7 77 10 115 4 39
8 86 10 105 12 164 18 226 23 235 3 7 1 7 -5 0 -6 -5 -14 -43 -17 -83 -4 -40
-9 -78 -11 -85 -2 -7 -6 -34 -9 -62 -3 -27 -10 -84 -16 -125 -11 -83 -15 -115
-30 -240 -6 -47 -12 -98 -14 -115 -5 -34 -16 -118 -21 -155 -2 -14 -9 -65 -16
-115 l-13 -90 -16 50 c-9 28 -20 59 -24 70 -14 36 -44 117 -97 265 -28 80 -65
178 -80 219 -16 40 -29 79 -29 87 0 7 -4 15 -8 18 -8 5 57 -300 108 -509 10
-44 21 -93 24 -110 3 -16 10 -45 15 -62 5 -18 6 -33 1 -33 -5 0 -55 26 -112
58 -57 32 -163 91 -236 131 -102 56 -133 77 -129 90 3 9 37 95 77 191 40 96
78 193 86 215 l14 40 -61 -65 c-147 -157 -179 -189 -179 -182 0 4 4 12 9 18
13 14 59 134 72 189 20 86 19 255 -2 353 -23 105 -58 204 -70 196 -8 -5 -47
-84 -71 -144 -65 -162 -79 -357 -42 -575 6 -35 -4 -24 -84 98 -97 149 -108
164 -98 130 4 -12 9 -30 11 -40 2 -10 22 -78 44 -152 23 -74 41 -138 41 -143
0 -5 -42 14 -92 42 -51 28 -112 61 -135 72 -24 12 -43 29 -43 37 0 9 9 48 19
87 11 39 25 104 32 145 l12 75 -36 47 c-42 55 -39 80 15 125 65 55 70 64 64
112 -13 94 -33 159 -106 330 -71 167 -97 244 -106 311 -7 52 -20 59 -22 11 -1
-56 -46 -201 -98 -319 -52 -116 -104 -295 -104 -356 0 -28 6 -35 84 -106 43
-39 43 -63 -1 -115 -22 -26 -24 -37 -20 -81 3 -27 7 -59 10 -70 3 -11 8 -33
12 -49 l8 -28 -57 31 c-315 174 -440 241 -448 241 -13 0 -10 12 23 112 36 109
88 320 93 375 3 28 -4 52 -25 91 -48 88 -42 106 61 209 l53 53 -6 97 c-7 116
-34 264 -81 434 -56 204 -84 363 -85 478 -1 62 -6 64 -14 6 -16 -117 -46 -213
-134 -430 -89 -218 -129 -337 -151 -447 -22 -109 -19 -123 43 -193 59 -67 69
-119 30 -165 -7 -8 -23 -33 -35 -54 -19 -35 -21 -49 -15 -130 3 -50 8 -104 10
-121 3 -16 7 -42 9 -56 2 -15 8 -53 12 -85 l7 -58 -44 26 c-24 14 -133 74
-242 133 -152 83 -197 112 -193 124 3 9 21 61 40 116 47 136 63 243 60 394 -1
69 -5 137 -8 151 -3 14 -8 39 -12 55 -8 42 -43 144 -64 184 l-17 33 -33 -42
c-142 -179 -217 -408 -219 -662 0 -54 0 -100 -1 -103 0 -2 -19 6 -42 19 -24
13 -140 76 -258 141 -118 65 -216 119 -217 120 -1 0 15 50 36 110 21 61 47
145 57 189 l18 79 -32 58 c-42 76 -37 95 44 159 43 33 64 58 65 73 3 50 -7
141 -22 207 -6 25 -13 55 -15 66 -2 12 -26 93 -53 180 -43 141 -60 208 -75
294 -3 14 -5 57 -6 95 l-2 70 -9 -58 c-12 -83 -62 -223 -128 -356 -80 -162
-126 -274 -150 -361 -31 -111 -29 -122 31 -186 29 -30 56 -63 60 -73 8 -22
-11 -61 -51 -107 -30 -34 -33 -64 -17 -173 3 -20 8 -56 12 -81 3 -24 8 -49 11
-54 5 -8 -176 85 -202 104 -5 4 -44 25 -85 47 -116 62 -215 116 -219 119 -2 2
11 42 28 91 51 140 72 255 72 403 0 148 -32 304 -83 405 l-21 39 -33 -39 c-74
-89 -147 -236 -180 -364 -29 -117 -38 -187 -38 -308 0 -46 -2 -83 -5 -83 -4 0
-15 6 -26 13 -11 8 -65 38 -120 67 -55 30 -122 66 -148 82 -26 15 -50 28 -52
28 -2 0 -31 16 -65 36 -48 28 -352 152 -560 228 -38 14 -607 226 -680 253 -25
10 -49 18 -55 19 -5 2 -62 21 -125 43 -63 23 -117 40 -121 39 -20 -9 1190
-922 1289 -973 37 -19 94 -50 127 -68 33 -18 87 -48 120 -67 104 -57 149 -83
173 -97 22 -13 19 -16 -74 -64 -240 -122 -442 -319 -528 -513 l-25 -56 28 0
c115 0 323 70 486 165 116 67 314 242 353 311 11 19 12 19 49 -1 38 -20 164
-89 238 -130 22 -12 95 -52 163 -89 67 -37 122 -69 122 -71 0 -2 -37 -15 -83
-30 -89 -29 -244 -92 -265 -109 -8 -5 -27 -36 -43 -68 -16 -31 -37 -61 -46
-66 -21 -10 -59 -7 -123 8 -54 13 -78 10 -113 -13 -54 -35 -188 -180 -293
-319 -109 -142 -199 -242 -284 -312 l-45 -38 70 35 c76 38 167 71 242 88 27 6
55 12 63 15 8 2 47 10 85 19 217 47 419 118 462 161 13 13 23 32 23 43 0 11 5
43 11 71 14 64 38 82 116 82 32 0 69 6 83 14 27 13 193 173 278 265 44 50 53
55 69 44 10 -6 47 -28 83 -47 69 -37 108 -58 313 -171 71 -38 125 -73 120 -76
-4 -4 -33 -18 -63 -31 -197 -87 -411 -259 -518 -417 -44 -64 -92 -156 -92
-174 0 -17 112 -4 217 27 150 43 325 136 448 236 60 49 174 168 203 210 l24
38 62 -34 c33 -18 95 -51 136 -73 41 -23 100 -55 130 -72 30 -17 81 -45 113
-63 l59 -32 -84 -29 c-148 -52 -330 -135 -347 -159 -9 -12 -27 -43 -41 -67
-24 -44 -62 -72 -98 -73 -9 0 -55 3 -102 7 l-85 7 -60 -45 c-97 -72 -227 -204
-382 -387 -107 -127 -267 -278 -359 -337 -10 -7 13 2 51 21 39 19 95 44 125
56 30 12 64 26 75 30 34 14 201 65 250 76 171 38 454 137 546 191 29 18 51 61
63 124 8 45 39 87 75 101 14 5 52 11 84 13 42 3 70 11 95 28 56 37 197 161
292 257 l85 86 235 -130 c129 -71 245 -134 257 -140 13 -6 23 -13 23 -16 0 -3
-30 -14 -68 -23 -110 -29 -128 -40 -156 -95 -30 -60 -60 -71 -127 -48 -81 27
-93 27 -145 -9 -64 -44 -154 -130 -244 -235 -100 -115 -185 -199 -243 -239
-27 -18 -46 -35 -43 -38 3 -3 11 -1 18 4 14 11 144 48 198 57 19 3 44 8 55 10
11 2 49 7 85 11 159 17 350 59 411 91 32 16 40 31 59 106 17 64 30 73 109 70
64 -2 68 -1 122 40 32 24 87 70 124 103 37 33 71 61 76 63 8 3 121 -55 199
-102 19 -12 48 -27 64 -34 27 -12 29 -24 3 -28 -7 -1 -32 -7 -57 -13 -72 -18
-83 -21 -112 -26 -15 -3 -69 -16 -120 -30 -51 -14 -94 -24 -95 -22 -1 1 -4 0
-7 -3 -5 -5 35 -7 279 -10 l100 -1 -80 -28 c-231 -82 -413 -210 -544 -384 -46
-60 -48 -67 -24 -63 10 2 36 6 58 10 63 11 205 56 265 84 127 59 253 159 344
272 15 19 23 26 18 15 -5 -11 -21 -54 -35 -95 -14 -41 -38 -106 -52 -145 l-25
-70 37 42 c21 23 99 112 173 197 l134 155 51 -28 c69 -39 138 -77 215 -119 36
-19 96 -52 133 -73 38 -22 73 -39 78 -39 21 0 7 -20 -18 -26 -16 -3 -39 -10
-53 -14 -14 -5 -41 -13 -60 -18 -72 -20 -377 -113 -416 -127 -23 -9 -50 -17
-60 -20 -34 -7 -140 -45 -109 -39 17 3 44 8 60 10 17 2 53 8 80 14 28 6 61 12
75 15 14 3 36 7 50 10 14 3 43 8 65 11 22 3 42 7 45 9 3 2 26 6 50 10 25 4 74
13 110 20 36 7 85 16 110 20 25 3 60 10 78 15 40 11 35 2 -20 -36 -24 -16 -45
-31 -48 -34 -3 -3 -25 -19 -50 -35 -25 -17 -95 -66 -157 -110 -135 -96 -541
-381 -589 -413 -19 -12 -34 -25 -34 -27 0 -6 36 17 180 110 52 34 223 144 380
245 157 101 311 201 343 222 33 22 60 38 62 36 3 -2 -217 -299 -262 -353 -5
-5 -38 -48 -73 -95 -78 -104 -74 -98 -105 -136 -43 -54 -28 -45 33 18 31 34
68 73 82 88 27 28 201 217 286 310 43 47 164 188 171 199 1 2 75 -37 165 -86
90 -50 195 -107 233 -128 39 -21 95 -52 125 -69 30 -18 81 -45 112 -61 31 -16
56 -30 55 -31 -1 -2 -56 -5 -122 -8 -188 -9 -439 -36 -452 -50 -5 -4 61 -45
217 -136 69 -40 127 -74 129 -76 10 -9 -9 -13 -94 -19 -49 -3 -103 -8 -120
-10 -16 -2 -61 -7 -100 -10 -38 -3 -92 -8 -120 -10 -129 -12 -155 -15 -230
-21 -44 -4 -86 -7 -93 -7 -21 0 -2 -12 123 -78 66 -34 129 -68 140 -76 18 -12
17 -13 -15 -14 -19 0 -42 -2 -50 -4 -8 -1 -46 -6 -85 -9 -38 -4 -83 -9 -100
-11 -39 -5 -106 -13 -180 -20 -33 -4 -71 -8 -85 -10 -14 -2 -56 -7 -95 -11
-38 -3 -71 -7 -72 -8 -1 -1 46 -27 105 -58 59 -31 131 -70 161 -86 l54 -30
-44 -7 c-24 -4 -53 -9 -64 -11 -10 -2 -35 -6 -55 -9 -20 -3 -47 -7 -60 -10
-13 -3 -40 -7 -60 -10 -20 -3 -47 -7 -60 -10 -13 -3 -42 -7 -65 -11 -22 -3
-44 -7 -50 -8 -5 -1 -50 -8 -100 -16 -49 -7 -94 -16 -98 -20 -5 -4 20 -13 55
-19 35 -7 103 -22 151 -33 l88 -20 -138 -65 c-76 -35 -187 -88 -248 -117 -246
-119 -390 -187 -446 -212 -33 -15 -58 -29 -55 -31 2 -2 19 3 37 11 19 8 86 35
149 59 108 42 308 121 600 236 69 27 127 48 128 46 4 -4 -22 -51 -101 -183
-27 -46 -47 -85 -45 -87 2 -2 19 9 38 25 216 177 494 399 497 396 2 -2 -1 -25
-7 -52 -7 -27 -13 -56 -15 -64 -2 -8 -15 -65 -29 -127 -14 -61 -26 -117 -26
-123 0 -12 35 16 140 114 30 28 130 120 221 204 148 135 192 171 175 144 -3
-5 -8 -22 -10 -38 -10 -51 -15 -78 -30 -149 -9 -38 -18 -82 -21 -97 -3 -16 -7
-40 -10 -55 -5 -24 -4 -25 11 -12 10 8 34 30 54 49 21 19 79 75 131 124 52 50
141 135 199 190 58 55 125 118 148 140 l44 41 -7 -65 c-4 -36 -8 -72 -10 -80
-2 -8 -6 -49 -10 -90 -4 -41 -9 -84 -11 -95 -2 -11 -7 -49 -10 -85 -3 -36 -8
-68 -10 -72 -20 -32 104 50 228 152 148 121 416 405 511 541 15 21 20 18 376
-178 198 -109 361 -201 361 -205 0 -5 -3 -9 -7 -10 -5 -1 -64 -21 -133 -46
-69 -24 -134 -44 -145 -44 -11 0 -45 14 -75 32 -129 75 -128 75 -57 7 37 -36
67 -67 67 -69 0 -2 -51 -4 -114 -3 -63 0 -113 -2 -110 -6 2 -4 45 -33 95 -65
l92 -58 -27 -23 c-34 -29 -62 -29 -156 1 -58 19 -93 23 -155 21 -44 -1 -122
-4 -172 -5 -51 -1 -93 -6 -93 -10 0 -5 17 -8 38 -7 20 0 78 0 127 -1 l90 -2
-60 -58 c-81 -78 -166 -183 -260 -322 -145 -213 -238 -320 -365 -423 -22 -18
-25 -23 -9 -14 64 37 232 99 309 113 14 2 36 7 50 10 37 9 50 11 222 39 196
31 262 47 382 88 53 19 96 32 96 29 0 -3 -20 -42 -45 -88 -25 -45 -45 -85 -45
-89 0 -4 36 49 81 116 80 121 81 123 86 198 6 93 25 136 63 150 31 10 34 7 44
-49 13 -77 39 -200 42 -197 2 1 23 58 47 126 l43 124 50 -58 c27 -31 62 -71
78 -89 l28 -31 -20 35 c-10 19 -36 63 -56 98 -20 35 -36 66 -36 69 0 3 48 53
106 111 58 58 120 124 137 145 81 98 71 92 109 74 18 -9 96 -52 173 -95 l140
-77 1 -297 1 -297 -71 -27 c-85 -32 -302 -137 -335 -163 l-23 -18 64 -40 c76
-49 186 -105 287 -148 l74 -31 -2 -304 c-1 -168 -5 -308 -9 -312 -7 -7 -18
-13 -228 -124 l-121 -64 -64 82 c-35 46 -116 136 -179 201 l-116 117 28 52
c16 29 40 72 54 97 l26 46 -34 -35 c-18 -19 -51 -57 -73 -84 l-40 -49 -13 34
c-8 19 -29 76 -47 128 -33 94 -37 97 -49 29 -9 -54 -38 -193 -41 -196 -1 -1
-14 2 -28 7 -40 15 -55 49 -62 136 -6 71 -11 87 -50 150 -24 39 -61 98 -81
132 -21 34 -39 61 -40 60 -2 -2 19 -46 47 -100 27 -53 48 -97 46 -97 -2 0 -31
11 -64 24 -33 14 -104 36 -159 49 -106 27 -157 37 -259 52 -60 8 -147 24 -255
46 -112 22 -310 95 -325 120 -4 5 -12 9 -18 9 -7 0 -3 -7 8 -16 147 -109 218
-190 425 -490 54 -78 134 -178 186 -231 l90 -93 -70 -1 c-132 -3 -144 -4 -152
-11 -4 -5 24 -8 62 -9 38 0 111 -2 162 -4 79 -4 106 0 172 21 44 13 91 23 105
21 26 -3 65 -31 64 -44 0 -5 -44 -36 -97 -70 l-97 -62 123 3 c67 1 122 -1 122
-6 0 -4 -3 -8 -7 -8 -11 0 -116 -101 -111 -106 2 -2 43 19 91 47 67 39 90 48
104 41 25 -14 248 -87 311 -103 28 -7 52 -15 52 -19 0 -3 -33 -22 -72 -43 -40
-20 -104 -54 -143 -75 -157 -85 -560 -297 -566 -297 -4 0 -41 46 -83 102 -184
248 -428 491 -646 644 -95 67 -92 66 -86 27 3 -18 8 -54 11 -81 8 -72 15 -134
25 -217 5 -41 12 -97 15 -125 l6 -50 -63 61 c-35 34 -77 75 -94 90 -41 39
-347 330 -395 376 -22 21 -39 33 -39 27 0 -6 16 -87 35 -181 20 -94 33 -173
31 -176 -3 -2 -11 2 -19 9 -8 8 -56 52 -106 99 -124 113 -124 113 -225 205
-49 44 -103 94 -120 110 -64 60 -64 60 -55 13 5 -24 24 -110 44 -192 19 -82
33 -151 32 -153 -2 -1 -14 7 -27 20 -13 12 -36 31 -51 42 -24 18 -407 325
-453 364 -18 15 -18 15 -8 -4 5 -11 42 -74 81 -140 38 -66 68 -121 67 -123 -4
-3 -138 45 -216 78 -50 21 -212 85 -305 120 -33 13 -73 29 -90 36 -16 7 -70
29 -120 48 -49 18 -115 44 -145 56 -103 41 -42 9 202 -107 349 -165 430 -204
546 -259 l103 -49 -58 -12 c-32 -7 -69 -15 -83 -18 -14 -3 -40 -8 -57 -11 -18
-3 -52 -11 -75 -19 -35 -11 -38 -13 -18 -15 31 -3 42 -5 155 -24 50 -9 108
-19 130 -22 22 -3 49 -7 60 -9 11 -2 49 -9 85 -15 36 -6 76 -13 90 -15 14 -2
43 -7 65 -11 22 -3 43 -9 47 -13 4 -3 -25 -23 -65 -44 -39 -21 -110 -57 -156
-81 l-84 -44 39 -6 c42 -6 171 -21 269 -31 33 -3 74 -8 90 -10 100 -13 246
-28 267 -27 35 2 25 -15 -25 -42 -29 -15 -91 -48 -139 -74 -48 -25 -86 -47
-85 -48 3 -4 77 -12 167 -19 41 -3 89 -8 105 -10 17 -2 68 -7 115 -10 47 -3
99 -8 115 -10 17 -2 66 -6 110 -10 116 -9 147 -13 152 -18 3 -4 -61 -44 -182
-113 -197 -112 -192 -106 -95 -119 25 -3 52 -8 60 -10 19 -5 136 -16 220 -21
99 -6 410 -5 421 1 5 4 9 2 9 -2 0 -5 -37 -27 -82 -50 -75 -38 -132 -68 -378
-200 -139 -74 -315 -167 -353 -187 l-39 -19 -24 29 c-55 64 -131 151 -166 189
-20 22 -49 54 -65 71 -140 155 -351 377 -332 348 14 -20 123 -166 146 -194 52
-64 313 -413 311 -415 -2 -1 -42 23 -89 54 -47 31 -123 80 -170 110 -296 192
-522 337 -646 418 -46 29 -83 51 -83 49 0 -4 101 -76 473 -336 347 -242 444
-310 462 -324 19 -15 19 -15 -5 -11 -14 3 -63 12 -110 20 -47 8 -96 17 -110
20 -14 3 -50 9 -80 15 -30 6 -66 12 -80 15 -14 3 -41 8 -60 11 -19 4 -44 8
-55 11 -11 2 -36 6 -55 8 -19 3 -46 8 -60 12 -14 3 -35 7 -47 8 -12 2 -36 6
-55 10 -79 17 -6 -9 227 -80 138 -42 301 -91 364 -109 63 -18 110 -35 105 -38
-15 -9 -134 -73 -239 -128 -55 -29 -133 -71 -174 -92 -71 -39 -74 -40 -91 -22
-10 11 -55 62 -100 114 -45 52 -108 124 -139 159 -31 35 -62 71 -68 80 -12 16
21 -88 71 -223 14 -39 24 -71 23 -72 -1 -2 -20 18 -42 44 -144 172 -370 293
-614 329 l-44 6 19 -33 c10 -18 62 -77 114 -130 133 -134 267 -219 444 -281
51 -17 72 -28 56 -29 -14 -1 -81 -3 -150 -5 -69 -2 -141 -4 -160 -5 l-35 -2
30 -9 c59 -17 324 -79 340 -79 37 0 3 -24 -123 -91 l-132 -70 -83 73 c-45 41
-104 89 -131 107 -45 31 -52 33 -105 28 -77 -8 -96 6 -112 81 -7 31 -19 65
-27 74 -29 34 -206 83 -367 103 -104 12 -132 16 -213 31 -72 13 -109 24 -227
69 -11 4 5 -10 35 -31 63 -43 165 -143 265 -259 141 -163 267 -269 310 -261
11 2 45 11 76 20 72 21 94 13 127 -50 27 -48 29 -50 121 -80 l94 -31 -139 -73
c-77 -41 -193 -102 -259 -137 l-119 -63 -81 79 c-136 135 -263 244 -310 269
-11 6 -48 13 -81 16 -108 10 -132 28 -154 116 -18 73 -31 99 -59 119 -66 46
-310 133 -536 191 -168 43 -305 91 -421 145 -54 25 -94 42 -89 37 6 -4 35 -27
66 -50 84 -63 179 -159 336 -337 146 -167 228 -249 326 -328 68 -54 68 -54
207 -42 68 7 78 5 103 -15 15 -12 39 -44 52 -70 13 -27 37 -57 52 -68 32 -22
260 -120 341 -147 29 -9 52 -18 50 -20 -3 -2 -102 -55 -410 -218 l-78 -41 -65
71 c-135 148 -294 255 -510 344 -57 23 -165 50 -227 56 l-69 6 17 -44 c74
-186 281 -394 517 -518 42 -22 77 -44 78 -47 0 -4 -50 -34 -113 -66 -62 -33
-158 -83 -213 -113 -163 -86 -186 -98 -190 -94 -3 2 -55 54 -117 114 -172 168
-159 159 -236 162 -106 4 -121 20 -138 136 -5 38 -13 53 -38 72 -59 45 -230
101 -471 155 -193 43 -326 88 -408 137 -50 31 -47 23 10 -21 100 -78 159 -141
289 -313 140 -184 279 -326 332 -340 13 -3 49 0 81 8 106 26 128 17 169 -70
24 -50 31 -56 96 -86 39 -18 99 -42 134 -55 35 -13 59 -26 55 -30 -4 -4 -42
-26 -83 -48 -172 -91 -279 -148 -344 -183 l-70 -38 -60 66 c-200 217 -489 371
-751 399 l-55 6 10 -27 c76 -200 300 -424 549 -550 l54 -27 -79 -42 c-43 -23
-151 -80 -239 -126 -118 -61 -222 -127 -400 -254 -132 -94 -242 -173 -245
-176 -3 -3 -54 -41 -115 -85 -60 -43 -122 -88 -136 -99 -15 -12 -39 -30 -54
-41 -16 -11 -89 -66 -164 -123 -75 -57 -173 -131 -218 -165 -45 -34 -82 -65
-83 -68 0 -13 745 248 1308 457 53 20 114 43 134 50 35 13 91 42 253 129 132
71 293 155 298 155 3 0 4 -46 3 -102 -5 -185 36 -374 114 -530 37 -74 108
-180 130 -193 23 -14 89 177 104 305 7 58 9 212 2 245 -2 11 -7 43 -10 70 -10
74 -43 189 -76 266 l-29 69 22 11 c37 20 174 92 347 184 91 48 173 92 182 96
14 8 16 5 12 -13 -17 -79 -43 -248 -46 -298 -2 -40 7 -66 36 -97 58 -66 55
-98 -14 -164 -44 -41 -60 -72 -54 -104 21 -120 47 -190 159 -425 80 -168 135
-319 135 -370 0 -48 10 -11 16 56 7 83 31 187 83 354 42 133 61 200 67 240 3
14 7 36 9 50 24 118 11 180 -44 213 -53 31 -89 74 -86 102 1 14 36 79 45 85
29 19 -9 187 -87 383 -19 49 -33 90 -31 91 5 5 106 60 223 121 61 32 159 84
218 116 59 33 109 59 111 59 2 0 0 -17 -3 -37 -13 -73 -3 -266 18 -371 33
-160 99 -315 173 -406 9 -12 25 -32 35 -44 l19 -24 26 54 c28 56 62 179 73
258 7 51 7 222 1 260 -3 14 -7 43 -11 64 -15 102 -38 177 -90 293 -16 35 -27
64 -24 66 5 5 101 56 264 142 61 32 134 71 164 87 29 16 55 27 58 25 2 -3 -1
-33 -6 -68 -26 -166 -28 -190 -32 -291 -2 -63 0 -70 36 -125 26 -40 38 -68 38
-91 -1 -35 -4 -40 -71 -123 -41 -49 -43 -56 -38 -98 15 -119 58 -254 174 -542
63 -155 114 -321 124 -401 6 -42 14 -42 14 0 1 45 12 168 19 202 2 14 7 36 10
50 10 46 15 70 19 90 3 11 18 68 35 128 48 169 75 315 86 460 5 77 -5 101 -71
157 -77 67 -85 100 -40 184 27 52 33 110 17 154 -5 13 -12 39 -15 58 -7 42
-58 224 -85 303 -12 33 -20 60 -19 61 24 15 114 64 193 104 55 29 150 78 210
111 111 60 131 68 120 50 -8 -12 -13 -38 -27 -121 -11 -66 -11 -66 22 -112 42
-59 36 -85 -30 -133 -27 -19 -52 -43 -55 -54 -15 -48 24 -193 108 -405 60
-150 81 -221 92 -307 8 -63 15 -75 15 -26 0 39 32 172 53 221 99 225 128 301
151 393 28 109 26 117 -57 192 -46 40 -47 65 -6 120 29 39 31 47 24 95 -4 29
-8 59 -10 67 -2 8 -6 29 -9 47 -3 17 -14 58 -25 92 -14 44 -16 63 -7 69 17 14
286 154 286 149 0 -2 -12 -41 -26 -88 -14 -46 -27 -91 -29 -99 -8 -29 -33
-116 -48 -162 -8 -27 -14 -48 -13 -48 1 0 40 59 87 131 121 189 121 188 102
109 -22 -96 -22 -294 2 -409 18 -91 98 -291 116 -291 12 0 47 101 67 193 19
84 23 248 8 332 -9 49 -42 146 -68 200 -17 34 -6 26 77 -60 53 -55 105 -111
116 -124 11 -13 21 -22 23 -20 2 2 -32 92 -76 199 -44 107 -85 211 -93 231
l-13 35 57 29 c31 16 128 68 216 115 213 113 214 114 219 109 3 -3 -6 -47 -19
-99 -14 -52 -27 -113 -31 -135 -3 -22 -7 -42 -9 -45 -4 -6 -49 -200 -59 -250
-2 -14 -12 -58 -20 -98 -9 -40 -16 -76 -16 -80 1 -6 58 139 64 163 2 6 6 17 9
25 10 23 68 184 71 195 2 6 8 21 13 35 6 14 26 70 46 125 46 131 55 153 57
135 1 -8 3 -24 5 -35 5 -33 25 -177 30 -225 3 -25 8 -62 10 -82 6 -45 13 -102
20 -160 5 -43 15 -110 20 -138 1 -8 6 -46 9 -85 4 -38 9 -77 11 -85 2 -8 6
-42 10 -75 11 -107 24 -187 30 -194 4 -3 4 10 1 29 -3 19 -11 91 -16 160 -6
69 -13 148 -15 175 -2 28 -7 82 -10 120 -3 39 -8 90 -10 115 -3 25 -7 77 -10
115 -11 140 -23 271 -31 343 -2 23 -2 42 1 42 2 0 36 -66 76 -148 152 -312
269 -547 269 -539 0 12 -83 236 -192 517 -55 140 -102 264 -104 275 -4 16 7
27 63 56 37 20 113 60 168 89 99 52 139 74 349 185 l109 58 -38 -69 c-21 -38
-42 -73 -46 -79 -33 -45 -164 -343 -155 -352 2 -2 85 37 186 87 100 50 184 89
186 87 3 -2 -67 -150 -154 -328 -88 -178 -158 -325 -157 -327 3 -3 66 30 213
110 39 22 72 37 72 35 0 -5 -227 -502 -256 -561 -8 -16 -12 -31 -10 -33 2 -2
34 14 72 35 38 21 108 60 157 86 l87 48 -21 -54 c-88 -221 -209 -537 -209
-545 0 -3 48 42 106 101 58 58 108 106 110 106 2 0 2 -33 -1 -72 -3 -40 -7
-111 -10 -158 -9 -179 -16 -287 -20 -340 -2 -30 -7 -120 -11 -200 -6 -146 -1
-187 9 -75 4 33 8 69 10 80 3 11 8 47 11 80 9 73 15 122 21 155 3 14 14 97 25
185 12 88 23 171 25 185 6 32 18 131 18 148 0 18 7 10 101 -132 47 -71 86
-124 86 -118 0 12 -103 515 -120 589 -6 23 -10 47 -10 53 0 11 82 -56 258
-208 34 -30 60 -49 58 -41 -3 8 -41 147 -85 309 -44 162 -85 310 -90 328 -5
17 -7 32 -4 32 3 0 73 -54 155 -121 82 -66 151 -119 152 -117 2 1 -7 35 -19
73 -12 39 -55 180 -94 315 -40 135 -81 271 -91 303 -10 31 -16 57 -13 57 4 0
52 -32 333 -225 41 -28 81 -55 88 -59 11 -7 12 2 7 45 -29 248 -123 565 -244
822 -22 49 -41 92 -41 96 0 6 66 42 400 219 30 16 114 59 185 97 72 37 136 73
144 79 12 9 13 7 8 -14 -4 -14 -17 -74 -28 -135 -11 -60 -22 -119 -24 -130 -3
-14 -32 -34 -96 -65 -87 -43 -128 -71 -75 -50 14 5 26 8 26 6 0 -2 28 4 63 15
34 10 65 19 69 19 7 0 -61 -115 -94 -159 -28 -37 -22 -41 30 -16 99 47 152 67
167 61 34 -13 8 -85 -47 -126 -54 -40 -102 -93 -126 -141 -12 -24 -35 -66 -51
-94 -86 -150 -101 -177 -101 -182 0 -3 29 37 63 88 115 169 117 172 120 158
41 -146 87 -255 177 -419 51 -92 67 -109 109 -115 18 -2 34 -5 35 -7 25 -39
35 -66 51 -133 22 -94 31 -110 32 -57 1 77 24 180 44 198 10 9 19 13 19 9 0
-4 9 0 20 10 36 33 147 339 166 460 3 22 8 47 9 55 2 8 4 24 4 35 1 14 17 -2
52 -50 88 -122 81 -99 -24 74 -47 78 -45 76 -134 134 -74 47 -92 74 -78 116 3
12 11 19 16 16 5 -4 17 -8 26 -10 10 -2 64 -19 121 -38 56 -19 102 -33 102
-30 0 5 -50 59 -137 148 -24 24 -40 46 -35 48 4 3 34 9 67 13 33 4 63 9 68 10
4 1 21 2 37 3 54 2 32 16 -27 17 -32 1 -81 2 -109 3 l-52 1 -46 141 c-26 78
-62 174 -80 215 l-34 73 31 19 c33 20 156 85 266 142 l64 33 46 -24 c99 -52
476 -261 482 -267 4 -4 3 -34 -1 -67 -5 -33 -11 -86 -15 -117 -7 -65 -9 -247
-3 -253 2 -2 102 149 223 335 121 187 279 430 352 542 72 112 180 277 238 368
59 91 171 263 249 382 77 120 197 304 266 410 69 105 127 196 129 202 2 6 8
15 13 21 5 5 28 39 51 75 23 36 109 169 191 295 167 256 278 428 380 585 37
58 109 168 159 246 246 377 263 404 250 404 -18 0 -248 -122 -324 -171 -45
-30 -84 -53 -88 -52 -3 1 -87 46 -186 100 -99 55 -215 118 -257 142 -43 23
-91 49 -107 58 l-28 17 2 183 c1 101 4 185 7 188 3 3 34 8 69 10 90 7 289 40
384 64 44 12 83 21 87 21 3 0 31 -38 62 -84 63 -97 87 -119 52 -49 -14 26 -28
60 -31 76 -4 15 -11 30 -16 33 -14 8 -11 44 4 39 6 -2 30 -7 52 -10 22 -3 56
-10 75 -14 19 -5 58 -12 85 -16 l50 -7 -102 82 c-57 45 -103 85 -103 89 0 5 8
15 18 23 24 23 75 15 157 -23 65 -31 76 -33 185 -33 131 -1 216 10 115 14 -33
2 -67 4 -75 5 -8 1 -26 3 -40 4 -23 1 -22 3 15 28 97 64 193 155 353 335 139
157 230 241 326 304 41 27 82 55 93 61 10 7 -3 4 -28 -6 -59 -24 -198 -58
-269 -66 -30 -3 -71 -8 -90 -10 -19 -2 -102 -7 -185 -10 -189 -8 -269 -14
-368 -31 -50 -8 -145 -32 -156 -39 -19 -11 -12 3 64 138 41 73 64 119 50 102
-14 -16 -28 -38 -31 -47 -3 -10 -10 -18 -15 -18 -5 0 -9 -4 -9 -9 0 -6 -32
-56 -72 -113 -53 -77 -75 -118 -86 -163 -15 -64 -20 -86 -21 -96 -2 -18 -53
-59 -73 -59 -20 0 -23 6 -26 48 -2 26 -5 58 -7 72 -2 14 -4 43 -4 65 l-1 40
-53 -82 c-28 -45 -57 -90 -63 -100 -10 -15 -13 -10 -26 37 -37 133 -36 132
-35 18 0 -59 -1 -109 -4 -111 -2 -2 -38 -28 -79 -58 -41 -30 -110 -85 -153
-123 l-78 -68 4 428 c3 236 5 429 6 429 1 1 16 1 34 1 41 1 212 14 236 19 10
2 42 6 71 10 29 4 62 9 74 11 12 2 50 9 86 15 171 29 385 88 547 151 57 22
102 43 98 46 -3 4 -112 50 -242 103 -129 53 -231 99 -227 101 8 5 32 11 87 24
9 2 25 6 35 8 190 47 360 89 372 91 8 2 72 17 142 34 70 17 136 31 145 31 10
0 13 3 8 9 -12 10 -343 121 -365 121 -31 1 16 17 140 50 187 48 532 140 555
147 13 4 -18 17 -95 40 -63 19 -122 36 -130 38 -8 2 -49 14 -90 27 l-75 24
195 62 c107 35 202 66 210 70 8 5 72 26 142 47 71 21 126 40 124 42 -2 2 -75
6 -162 9 -87 2 -159 6 -161 8 -3 3 479 350 715 514 74 52 115 85 82 67 -8 -5
-26 -16 -40 -26 -14 -9 -88 -55 -165 -101 -77 -47 -234 -142 -350 -213 -115
-70 -230 -140 -255 -155 l-45 -27 47 141 c26 78 47 143 48 146 0 6 -159 -167
-243 -264 -10 -12 -51 -57 -90 -100 -40 -43 -78 -87 -85 -98 -7 -10 -17 -16
-21 -14 -4 3 -6 80 -5 171 l2 166 -23 -28 c-13 -15 -109 -135 -214 -266 l-190
-237 1 151 c0 82 -2 152 -4 155 -3 2 -52 -58 -109 -133 -98 -131 -288 -379
-330 -433 l-19 -24 -1 69 c-1 39 -2 97 -4 130 -1 33 -4 93 -5 133 -2 39 -6 72
-10 72 -10 0 -104 -108 -169 -194 -81 -107 -142 -200 -206 -311 -31 -55 -59
-102 -61 -104 -2 -2 -3 203 -1 457 l2 460 35 6 c19 3 53 8 75 11 22 3 65 10
95 15 30 5 71 12 90 15 19 3 46 7 60 10 14 3 41 7 60 10 19 3 42 8 50 10 8 2
35 7 60 10 25 4 77 13 115 20 39 8 84 17 100 20 17 2 41 7 55 10 13 2 42 7 65
11 22 3 42 8 45 10 4 5 -77 -1 -165 -11 -16 -2 -70 -6 -120 -10 -49 -4 -101
-8 -115 -11 -14 -2 -59 -6 -100 -9 -41 -3 -93 -8 -115 -9 -175 -15 -200 -16
-175 -4 35 17 133 61 280 125 69 30 143 63 165 73 22 10 123 55 225 100 102
45 203 90 225 100 22 10 64 28 93 40 29 13 51 24 49 26 -3 3 -630 -244 -702
-276 -19 -8 -209 -84 -325 -130 l-55 -22 25 28 c14 15 62 66 106 113 45 47 94
100 108 116 15 17 85 90 154 164 123 129 164 180 106 128 -16 -14 -103 -87
-194 -163 -209 -174 -276 -231 -320 -271 -19 -18 -38 -33 -43 -33 -9 0 -5 520
3 525 4 2 29 7 56 11 27 3 56 8 66 9 9 2 38 7 65 11 26 3 55 8 63 9 8 2 51 8
95 15 44 6 89 13 100 15 11 2 31 4 44 4 13 1 22 3 20 6 -6 5 -196 43 -254 50
-22 3 -54 9 -70 14 -30 9 -30 9 10 11 45 2 49 2 154 25 94 20 255 97 341 163
61 46 190 168 190 180 0 11 -173 -9 -261 -32 -169 -43 -341 -128 -461 -227
l-52 -44 21 35 c11 19 45 76 73 125 29 50 62 106 73 125 19 32 19 34 2 20 -20
-17 -82 -75 -196 -186 -42 -40 -78 -72 -80 -70 -2 2 -3 72 -1 154 l3 150 37 6
c51 9 231 65 264 82 15 8 38 35 51 62 30 61 58 71 128 49 28 -9 64 -17 80 -17
46 0 165 107 314 285 106 126 155 176 225 228 81 61 83 64 41 42 -38 -19 -171
-66 -171 -60 0 2 -15 -1 -32 -6 -18 -5 -108 -21 -199 -34 -147 -22 -268 -51
-351 -84 -36 -13 -54 -44 -68 -113 -10 -51 -14 -58 -44 -68 -18 -6 -53 -9 -78
-6 -41 4 -50 1 -104 -42 -32 -25 -65 -52 -72 -59 -7 -7 -15 -13 -17 -13 -3 0
-3 124 -2 275 l2 276 35 8 c156 35 320 78 397 102 79 25 97 36 127 71 20 23
36 45 36 49 0 4 16 18 37 30 34 21 39 22 102 10 154 -30 150 -30 258 41 111
73 245 182 383 311 31 29 78 70 105 92 28 21 52 42 55 45 3 4 54 39 114 78 60
40 107 72 104 72 -3 0 -35 -11 -72 -24 -57 -21 -109 -35 -231 -62 -11 -3 -109
-18 -217 -34 -367 -55 -598 -122 -598 -173 0 -5 -14 -38 -31 -74 -37 -78 -61
-91 -162 -88 -47 1 -82 -3 -102 -13 -40 -20 -195 -124 -268 -180 -32 -24 -61
-42 -64 -38 -6 5 -5 508 1 513 4 5 29 9 91 17 161 22 370 105 535 214 83 55
216 177 239 219 10 20 8 22 -41 28 -123 17 -258 6 -422 -36 -109 -28 -196 -62
-304 -119 -51 -28 -94 -50 -95 -50 -2 0 -2 125 -1 277 2 187 7 279 14 283 6 4
44 13 83 20 84 14 250 55 290 72 16 6 43 34 62 64 45 70 66 75 167 41 l79 -27
42 21 c68 34 182 124 291 229 171 165 199 190 271 245 39 29 92 65 119 79 58
31 50 33 -21 6 -63 -24 -223 -57 -318 -65 -38 -3 -86 -8 -105 -10 -19 -2 -69
-7 -110 -10 -96 -9 -206 -29 -298 -57 -80 -23 -85 -28 -116 -125 -24 -72 -34
-78 -135 -78 l-86 0 -93 -65 c-51 -36 -102 -71 -113 -79 -19 -13 -19 -9 -17
253 2 147 5 271 8 276 3 5 24 12 45 15 22 4 47 8 55 10 8 2 31 7 50 10 60 10
235 72 312 111 121 61 208 123 307 222 113 112 111 115 -44 118 -114 2 -223
-10 -310 -33 -33 -8 -64 -16 -70 -18 -5 -1 -17 -4 -25 -7 -8 -3 -37 -14 -65
-23 -56 -20 -172 -75 -222 -106 l-33 -21 0 34 c-1 18 -2 159 -4 313 -1 154 -5
289 -8 301 -4 12 -9 45 -13 75 -3 30 -8 65 -10 79 -7 36 -13 76 -24 160 -9 63
-38 261 -56 378 -3 17 -8 49 -11 70 -3 20 -14 91 -25 157 -11 66 -22 132 -24
148 -3 15 -7 42 -10 60 -3 17 -12 65 -20 105 -9 40 -16 84 -17 97 -2 21 -6 32
-9 23z"/>
<path d="M16860 17468 c-19 -22 -41 -47 -49 -56 -15 -14 -99 -141 -241 -362
-34 -52 -97 -149 -140 -215 -82 -125 -200 -307 -260 -401 -34 -52 -587 -905
-755 -1164 -75 -114 -360 -554 -493 -760 -31 -47 -92 -141 -137 -210 -44 -69
-139 -215 -210 -325 -72 -110 -161 -248 -200 -307 -38 -59 -137 -212 -220
-340 -82 -127 -195 -301 -250 -385 -55 -84 -144 -222 -198 -306 -55 -83 -274
-422 -488 -752 -215 -330 -440 -678 -502 -773 -62 -95 -161 -249 -222 -342
-60 -94 -140 -216 -176 -272 -61 -95 -115 -177 -313 -483 -40 -60 -103 -158
-141 -218 -39 -59 -126 -194 -195 -300 -69 -105 -177 -272 -240 -370 -63 -97
-145 -223 -182 -280 -37 -56 -90 -138 -118 -182 -28 -44 -161 -249 -295 -455
-134 -206 -296 -456 -360 -555 -134 -207 -279 -430 -555 -855 -107 -165 -211
-325 -230 -355 -45 -71 -332 -514 -579 -892 -47 -73 -140 -216 -206 -318 -66
-102 -147 -227 -180 -278 -33 -50 -231 -355 -440 -677 -208 -322 -412 -637
-453 -700 -41 -63 -104 -160 -140 -215 -36 -55 -88 -136 -117 -180 -29 -44
-78 -120 -110 -170 -32 -49 -86 -133 -121 -185 -34 -52 -124 -192 -201 -310
-183 -285 -255 -395 -397 -613 -65 -100 -139 -213 -163 -252 l-44 -70 43 46
c24 26 54 60 68 75 14 16 108 124 210 239 102 116 275 311 384 435 109 124
212 241 230 260 17 19 81 91 141 160 60 69 114 130 120 136 6 6 35 39 65 74
30 34 60 68 65 74 16 17 163 184 235 266 77 88 217 246 310 350 36 41 100 113
141 160 109 125 372 423 384 436 12 12 95 107 220 249 48 55 102 116 119 135
17 19 51 57 75 85 133 151 168 191 186 211 11 12 41 46 66 75 26 30 57 66 70
80 13 14 53 58 89 99 36 41 82 92 102 114 21 23 38 44 38 49 0 4 5 7 11 7 6 0
8 -8 5 -17 -6 -22 -14 -63 -22 -123 -6 -43 -8 -55 -18 -110 -3 -14 -8 -43 -11
-65 -3 -22 -10 -65 -15 -95 -5 -30 -12 -73 -15 -95 -4 -22 -15 -89 -25 -150
-10 -60 -21 -128 -25 -150 -3 -22 -8 -53 -11 -70 -3 -16 -7 -41 -9 -55 -5 -37
-16 -102 -21 -130 -2 -14 -7 -41 -10 -60 -2 -19 -11 -71 -19 -115 -8 -44 -16
-98 -20 -120 -7 -52 -14 -94 -20 -125 -3 -14 -7 -38 -9 -55 -3 -16 -14 -84
-25 -150 -11 -66 -23 -142 -26 -170 -4 -27 -8 -52 -10 -55 -2 -3 -6 -29 -10
-59 -4 -30 -9 -63 -11 -75 -2 -12 -7 -37 -10 -56 -3 -19 -9 -60 -14 -90 -5
-30 -12 -71 -15 -90 -3 -19 -8 -42 -10 -50 -2 -8 -6 -35 -9 -60 -4 -25 -8 -56
-11 -70 -8 -48 -44 -265 -49 -305 -6 -39 -9 -56 -21 -115 -2 -14 -7 -45 -11
-70 -3 -25 -9 -64 -14 -87 -9 -53 3 -56 23 -5 8 20 84 177 167 347 84 171 196
400 250 510 54 110 150 308 215 440 64 132 154 317 200 410 45 94 142 292 215
440 73 149 161 328 195 398 l62 129 8 -104 c5 -56 9 -114 10 -128 1 -14 5 -50
9 -80 6 -54 9 -85 21 -225 3 -38 8 -88 10 -110 2 -22 7 -67 10 -100 3 -33 7
-80 10 -105 5 -46 11 -112 20 -210 11 -119 16 -177 21 -225 3 -27 7 -68 9 -90
5 -66 19 -217 30 -321 3 -28 7 -73 10 -100 8 -96 16 -190 20 -224 3 -19 7 -66
10 -105 10 -119 15 -169 20 -205 2 -19 7 -69 10 -110 3 -41 8 -91 10 -110 2
-19 7 -66 10 -105 3 -38 8 -89 11 -112 11 -105 13 -133 19 -213 4 -47 8 -96
10 -110 4 -24 9 -75 20 -213 3 -34 8 -78 10 -97 3 -19 7 -65 10 -103 3 -37 7
-86 9 -110 3 -23 8 -71 11 -107 3 -36 8 -81 10 -100 2 -19 7 -72 10 -117 3
-45 7 -90 9 -100 2 -10 7 -56 11 -103 4 -47 9 -103 11 -125 8 -90 15 -162 19
-195 2 -19 7 -69 10 -110 4 -41 8 -88 10 -105 2 -16 7 -64 10 -105 3 -41 8
-84 10 -95 2 -11 4 -38 4 -59 1 -22 3 -37 5 -35 3 3 48 214 72 334 2 11 8 43
14 70 5 28 12 61 15 75 3 14 8 36 10 50 7 40 15 81 30 145 7 33 16 77 19 98 4
22 13 69 21 105 8 37 17 78 19 92 4 21 122 606 131 650 4 18 105 517 111 545
2 11 24 119 48 240 25 121 47 231 50 245 2 14 7 36 10 50 3 14 8 36 10 50 11
56 69 343 126 625 34 165 64 311 67 325 15 80 35 179 57 285 14 66 27 131 30
145 2 14 7 36 10 50 3 14 8 36 10 50 3 14 11 57 19 95 9 39 18 84 20 100 3 17
24 120 46 230 23 110 44 214 47 230 3 17 10 48 15 69 l11 40 88 -235 c48 -129
290 -767 538 -1419 247 -652 455 -1202 461 -1222 7 -21 17 -41 23 -44 6 -4 9
-3 6 2 -3 5 -9 65 -13 134 -4 69 -9 139 -10 155 -1 17 -6 75 -9 130 -4 55 -9
120 -11 145 -2 25 -6 92 -10 150 -3 58 -8 130 -10 160 -12 158 -15 203 -20
290 -3 52 -7 111 -10 130 -2 19 -7 82 -10 140 -3 58 -8 130 -10 160 -3 30 -7
91 -10 135 -2 44 -7 112 -9 150 -3 39 -8 106 -11 150 -3 44 -8 107 -10 140 -6
74 -15 210 -20 290 -9 141 -14 219 -20 287 -2 40 -7 108 -10 152 -3 43 -7 82
-10 86 -3 5 -2 11 2 13 5 3 94 -117 200 -267 229 -323 647 -912 668 -941 20
-26 92 -128 245 -345 68 -96 148 -209 177 -250 79 -111 77 -108 142 -200 33
-47 73 -103 89 -125 16 -22 141 -197 277 -389 136 -193 256 -361 266 -375 10
-15 83 -118 163 -231 179 -253 218 -307 234 -328 7 -9 105 -149 219 -309 114
-161 208 -291 209 -290 3 2 1 8 -406 1217 -166 492 -357 1059 -424 1260 -68
201 -160 473 -204 605 -45 132 -196 581 -336 998 l-255 758 102 -84 c180 -147
367 -299 491 -400 67 -54 130 -106 141 -115 11 -10 56 -46 100 -82 44 -36 89
-73 100 -82 11 -9 162 -132 335 -274 173 -141 333 -271 355 -290 84 -69 556
-454 684 -558 74 -60 130 -103 126 -95 -5 8 -54 82 -110 164 -108 159 -271
401 -527 780 -147 219 -433 642 -644 956 -55 81 -168 248 -252 373 -84 124
-150 226 -148 226 2 0 42 -17 88 -39 93 -43 769 -354 948 -436 267 -122 370
-170 459 -211 51 -24 95 -44 96 -44 2 0 47 -21 102 -46 54 -25 148 -69 208
-96 61 -28 137 -63 170 -78 33 -16 227 -105 430 -198 368 -169 399 -183 610
-280 61 -27 154 -71 208 -96 55 -25 100 -46 102 -46 2 0 52 -23 112 -51 59
-28 126 -59 148 -69 58 -27 312 -144 365 -168 25 -12 144 -66 265 -121 l220
-100 -50 46 c-27 25 -104 93 -170 152 -293 257 -372 328 -405 357 -37 34 -358
316 -475 418 -38 34 -90 79 -115 102 -25 22 -61 54 -80 71 -50 44 -238 209
-285 252 -22 20 -76 67 -120 105 -44 39 -84 75 -90 80 -5 6 -44 40 -85 76 -41
36 -80 70 -86 75 -6 6 -39 35 -74 65 -34 30 -68 60 -74 65 -6 6 -49 44 -96 85
-47 41 -101 89 -120 106 -19 17 -62 55 -95 84 -33 29 -73 65 -90 79 -16 15
-68 60 -115 101 -47 41 -101 89 -120 106 -45 40 -474 420 -565 499 -38 33 -73
65 -79 70 -6 6 -87 78 -181 160 -93 82 -172 152 -175 155 -3 3 -24 22 -48 43
-34 29 -38 36 -20 32 13 -2 37 -7 53 -10 117 -20 284 -47 305 -50 36 -5 569
-92 670 -110 47 -8 105 -17 130 -20 25 -3 52 -8 60 -10 8 -2 31 -6 50 -9 49
-7 281 -45 305 -50 18 -3 150 -24 200 -32 56 -8 103 -15 130 -21 17 -3 40 -8
53 -9 12 -2 32 -6 45 -8 12 -2 42 -7 67 -10 25 -3 56 -8 70 -11 14 -2 39 -7
55 -9 190 -31 313 -51 370 -62 27 -5 214 -35 245 -39 14 -2 68 -11 120 -20 52
-9 108 -18 123 -21 18 -3 26 -1 22 6 -3 5 -10 10 -14 10 -5 0 -165 77 -357
171 -192 94 -421 206 -509 249 -88 43 -263 128 -390 190 -808 395 -1144 559
-1287 628 -130 63 -155 78 -125 79 13 0 155 13 202 18 17 2 68 7 115 10 47 4
92 8 100 10 8 1 56 6 105 9 50 4 101 9 115 11 14 2 57 7 95 10 39 3 86 7 105
10 19 3 66 7 103 10 74 5 161 13 217 20 19 2 69 7 110 10 41 3 91 8 110 10 19
2 64 7 100 10 74 7 145 13 210 20 25 2 74 7 110 10 36 3 85 8 110 10 25 3 74
7 110 10 36 3 81 7 100 10 19 2 65 7 103 10 37 3 86 7 110 9 23 3 71 8 107 11
36 3 85 8 110 10 25 2 72 7 105 10 86 8 165 16 205 20 19 2 73 7 120 10 47 3
92 8 100 10 8 2 53 7 100 10 47 4 96 8 110 10 14 2 63 7 110 10 47 4 92 8 100
10 8 2 53 6 100 9 47 4 101 9 120 11 19 2 60 6 90 9 143 13 197 18 220 21 14
2 65 7 114 10 48 4 96 8 105 10 9 1 54 6 101 10 47 3 96 8 110 10 14 2 59 6
100 10 41 4 89 8 105 10 17 2 70 7 119 10 49 4 97 9 105 10 9 2 25 4 36 5 23
2 -47 19 -204 50 -31 6 -119 24 -196 40 -77 16 -151 31 -165 34 -14 2 -36 7
-50 10 -14 3 -36 8 -50 10 -14 2 -185 37 -380 76 -336 69 -419 85 -465 94 -11
2 -78 16 -150 31 -71 15 -137 28 -145 29 -8 2 -40 8 -70 14 -59 13 -90 19
-130 27 -24 4 -555 112 -595 121 -11 2 -32 6 -47 9 -31 6 -276 55 -298 60 -32
7 -166 34 -190 39 -14 2 -83 16 -155 31 -71 14 -141 29 -155 31 -14 3 -113 23
-220 45 -107 22 -204 41 -215 43 -11 3 -157 32 -325 66 -168 34 -314 64 -325
66 -11 2 -86 17 -167 34 -81 16 -162 32 -180 35 -18 3 -49 9 -68 14 l-35 7 55
21 c30 12 96 37 145 56 50 19 218 83 375 142 157 59 299 113 315 120 17 7 100
39 185 71 85 31 166 61 180 67 14 6 30 11 35 13 11 3 930 352 1010 383 28 11
174 67 325 124 151 57 282 107 290 111 14 5 -133 0 -255 -9 -65 -5 -200 -14
-295 -20 -41 -3 -100 -7 -130 -10 -30 -2 -98 -7 -150 -10 -52 -3 -115 -8 -140
-10 -25 -2 -92 -7 -150 -10 -58 -3 -121 -8 -140 -10 -19 -1 -80 -6 -135 -9
-55 -4 -127 -9 -160 -11 -33 -3 -102 -7 -153 -10 -52 -4 -112 -8 -135 -10 -23
-2 -87 -7 -142 -10 -55 -3 -122 -8 -150 -10 -27 -2 -90 -7 -140 -10 -49 -3
-110 -7 -135 -10 -25 -3 -92 -7 -150 -10 -58 -3 -125 -7 -150 -10 -25 -2 -88
-7 -140 -10 -52 -3 -110 -7 -128 -10 -27 -3 15 30 200 161 128 91 242 172 253
180 11 8 50 36 87 62 37 26 187 133 334 237 147 105 288 204 313 222 42 29
458 324 911 646 153 109 434 308 725 514 50 36 100 72 112 81 13 9 52 37 88
62 36 25 103 72 149 105 45 33 178 128 295 210 117 83 256 182 309 220 53 39
122 87 152 108 132 89 128 90 -65 25 -99 -33 -499 -168 -890 -300 -390 -131
-717 -241 -725 -243 -8 -2 -226 -76 -485 -163 -258 -87 -612 -207 -785 -265
-173 -58 -642 -216 -1043 -351 -400 -135 -724 -240 -720 -233 10 17 253 317
273 337 3 3 41 50 85 105 44 55 82 102 85 105 3 3 64 77 135 165 71 88 137
169 147 180 9 11 53 65 98 120 45 55 89 109 98 120 10 11 46 56 82 100 35 44
67 82 70 85 3 3 43 52 89 110 47 58 87 107 90 110 4 3 42 50 86 105 44 55 88
109 97 120 14 16 172 210 434 530 17 22 48 60 68 83 20 24 36 46 36 48 0 2
-48 -29 -107 -69 -60 -41 -227 -154 -373 -252 -146 -98 -353 -238 -460 -310
-107 -72 -298 -201 -425 -287 -414 -279 -666 -449 -895 -603 -269 -182 -255
-173 -242 -149 5 11 32 69 60 129 28 61 66 144 85 185 19 41 82 179 140 305
57 127 125 274 151 328 25 54 46 100 46 101 0 2 21 48 46 102 25 55 59 128 76
164 17 36 91 198 165 360 75 162 149 324 166 360 16 36 53 117 82 180 29 63
69 151 90 195 20 44 47 103 60 130 12 28 36 79 53 115 42 91 87 189 137 300
24 52 62 136 85 185 23 50 103 223 177 385 176 383 200 434 230 500 24 51 38
81 106 230 13 30 35 78 47 105 12 28 33 72 46 99 13 27 23 51 21 52 -2 2 -18
-15 -37 -38z"/>
<path d="M9520 14990 c8 -5 20 -10 25 -10 6 0 3 5 -5 10 -8 5 -19 10 -25 10
-5 0 -3 -5 5 -10z"/>
<path d="M9808 14563 c6 -2 18 -2 25 0 6 3 1 5 -13 5 -14 0 -19 -2 -12 -5z"/>
<path d="M6501 13404 c0 -11 3 -14 6 -6 3 7 2 16 -1 19 -3 4 -6 -2 -5 -13z"/>
<path d="M8907 12809 c7 -7 15 -10 18 -7 3 3 -2 9 -12 12 -14 6 -15 5 -6 -5z"/>
<path d="M5069 11089 l-24 -20 28 17 c15 9 27 18 27 20 0 8 -8 4 -31 -17z"/>
<path d="M7230 10350 c0 -5 7 -7 15 -4 8 4 15 8 15 10 0 2 -7 4 -15 4 -8 0
-15 -4 -15 -10z"/>
<path d="M7210 8620 c0 -5 5 -10 11 -10 5 0 7 5 4 10 -3 6 -8 10 -11 10 -2 0
-4 -4 -4 -10z"/>
<path d="M8791 6334 c0 -11 3 -14 6 -6 3 7 2 16 -1 19 -3 4 -6 -2 -5 -13z"/>
</g>
</svg>
